<svg width="32" height="32" viewBox="0 0 32 32" fill="none" xmlns="http://www.w3.org/2000/svg">
<path d="M17 8V20.184C17.6672 20.4199 18.2296 20.8841 18.5876 21.4945C18.9457 22.1049 19.0765 22.8222 18.9568 23.5197C18.8371 24.2172 18.4747 24.85 17.9337 25.3061C17.3926 25.7622 16.7077 26.0124 16 26.0124C15.2923 26.0124 14.6074 25.7622 14.0663 25.3061C13.5253 24.85 13.1629 24.2172 13.0432 23.5197C12.9235 22.8222 13.0543 22.1049 13.4124 21.4945C13.7705 20.8841 14.3328 20.4199 15 20.184V8C15 7.44772 15.4477 7 16 7C16.5523 7 17 7.44772 17 8Z" fill="#215F88"/>
<path fill-rule="evenodd" clip-rule="evenodd" d="M12.5985 27.946C13.5994 28.6339 14.7857 29.0015 16.0002 29L15.9987 29L16.0002 28L16.0016 29L16.0002 29C17.2147 29.0015 18.401 28.6339 19.4019 27.946C20.4032 27.2578 21.1717 26.2815 21.6054 25.1466C22.0392 24.0116 22.1178 22.7717 21.8307 21.5911C21.5439 20.4114 20.9055 19.3467 20.0002 18.5378V7C20.0002 5.93913 19.5788 4.92172 18.8286 4.17157C18.0785 3.42143 17.0611 3 16.0002 3C14.9393 3 13.9219 3.42143 13.1718 4.17157C12.4216 4.92172 12.0002 5.93913 12.0002 7V18.5378C11.0949 19.3467 10.4565 20.4114 10.1697 21.5911C9.88261 22.7717 9.96117 24.0116 10.3949 25.1466C10.8287 26.2815 11.5972 27.2578 12.5985 27.946ZM16.0002 28C17.0124 28.0015 18.0012 27.6952 18.8355 27.1218C19.6697 26.5485 20.3099 25.7351 20.6713 24.7896C21.0327 23.844 21.0982 22.8109 20.859 21.8273C20.6199 20.8437 20.0874 19.9561 19.3322 19.282L19.0002 18.983V7C19.0002 6.20435 18.6841 5.44129 18.1215 4.87868C17.5589 4.31607 16.7958 4 16.0002 4C15.2045 4 14.4415 4.31607 13.8789 4.87868C13.3163 5.44129 13.0002 6.20435 13.0002 7V18.983L12.6682 19.282C11.913 19.9561 11.3805 20.8437 11.1414 21.8273C10.9022 22.8109 10.9677 23.844 11.329 24.7896C11.6904 25.7351 12.3307 26.5485 13.1649 27.1218C13.9991 27.6952 14.9879 28.0015 16.0002 28Z" fill="#215F88"/>
</svg>
