<svg width="32" height="32" viewBox="0 0 32 32" fill="none" xmlns="http://www.w3.org/2000/svg">
<path d="M26.8085 12.0892C28.1163 12.8316 29 14.191 29 15.7481C29 18.0428 27.0963 19.9084 24.718 19.9904V19.9952H24.5968C24.5817 20 24.5615 20 24.5463 20C24.5387 20 24.5299 19.9988 24.5211 19.9976C24.5122 19.9964 24.5034 19.9952 24.4958 19.9952H7.71121C5.1107 19.9952 3 17.9801 3 15.4974C3 13.0148 5.1107 10.9997 7.72131 10.9997C7.92329 10.9997 8.12527 11.0142 8.3222 11.0383C8.25151 10.6864 8.21111 10.3248 8.21111 9.9536C8.21111 6.66586 11.0035 4 14.4473 4C16.9013 4 19.0171 5.35945 20.032 7.32148C20.5471 7.15758 21.1025 7.06116 21.6782 7.06116C24.516 7.06116 26.8136 9.25942 26.8136 11.9638C26.8136 11.9855 26.8123 12.006 26.811 12.0265C26.8098 12.047 26.8085 12.0675 26.8085 12.0892Z" fill="#215F88"/>
<path d="M6.31575 26.6802C6.05417 26.7687 5.77039 26.6284 5.6819 26.3668L4.5265 22.9514C4.43801 22.6898 4.57833 22.406 4.83991 22.3175C5.10149 22.229 5.38528 22.3693 5.47377 22.6309L6.62916 26.0463C6.71765 26.3079 6.57734 26.5917 6.31575 26.6802Z" fill="#215F88"/>
<path d="M17.1605 26.6802C16.8989 26.7687 16.6151 26.6284 16.5266 26.3668L15.3712 22.9514C15.2827 22.6898 15.4231 22.406 15.6846 22.3175C15.9462 22.229 16.23 22.3693 16.3185 22.6309L17.4739 26.0463C17.5624 26.3079 17.4221 26.5917 17.1605 26.6802Z" fill="#215F88"/>
<path d="M28.1605 26.6802C27.8989 26.7687 27.6151 26.6284 27.5266 26.3668L26.3712 22.9514C26.2827 22.6898 26.4231 22.406 26.6846 22.3175C26.9462 22.229 27.23 22.3693 27.3185 22.6309L28.4739 26.0463C28.5624 26.3079 28.4221 26.5917 28.1605 26.6802Z" fill="#215F88"/>
<path d="M22.5266 29.3668C22.6151 29.6284 22.8989 29.7687 23.1605 29.6802C23.4221 29.5917 23.5624 29.3079 23.4739 29.0463L22.3185 25.6309C22.23 25.3693 21.9462 25.229 21.6846 25.3175C21.4231 25.406 21.2827 25.6898 21.3712 25.9514L22.5266 29.3668Z" fill="#215F88"/>
<path d="M11.5266 29.3668C11.6151 29.6284 11.8989 29.7687 12.1605 29.6802C12.4221 29.5917 12.5624 29.3079 12.4739 29.0463L11.3185 25.6309C11.23 25.3693 10.9462 25.229 10.6846 25.3175C10.4231 25.406 10.2827 25.6898 10.3712 25.9514L11.5266 29.3668Z" fill="#215F88"/>
</svg>
