<svg width="32" height="32" viewBox="0 0 32 32" fill="none" xmlns="http://www.w3.org/2000/svg">
<path d="M16.5 3C16.5 2.72386 16.2761 2.5 16 2.5C15.7239 2.5 15.5 2.72386 15.5 3V7C15.5 7.27614 15.7239 7.5 16 7.5C16.2761 7.5 16.5 7.27614 16.5 7V3Z" fill="#215F88"/>
<path d="M22.933 4.99167C23.0711 4.75252 22.9891 4.44673 22.75 4.30866C22.5109 4.17059 22.2051 4.25252 22.067 4.49167L20.067 7.95577C19.9289 8.19492 20.0109 8.50071 20.25 8.63878C20.4891 8.77685 20.7949 8.69492 20.933 8.45577L22.933 4.99167Z" fill="#215F88"/>
<path d="M27.6915 9.25023C27.8295 9.48937 27.7476 9.79517 27.5085 9.93324L24.0444 11.9332C23.8052 12.0713 23.4994 11.9894 23.3613 11.7502C23.2233 11.5111 23.3052 11.2053 23.5444 11.0672L27.0085 9.06721C27.2476 8.92914 27.5534 9.01108 27.6915 9.25023Z" fill="#215F88"/>
<path d="M29 16.5C29.2761 16.5 29.5 16.2761 29.5 16C29.5 15.7239 29.2761 15.5 29 15.5H25C24.7239 15.5 24.5 15.7239 24.5 16C24.5 16.2761 24.7239 16.5 25 16.5H29Z" fill="#215F88"/>
<path d="M27.6913 22.75C27.5533 22.9891 27.2475 23.0711 27.0083 22.933L23.5442 20.933C23.3051 20.7949 23.2231 20.4891 23.3612 20.25C23.4993 20.0109 23.8051 19.9289 24.0442 20.067L27.5083 22.067C27.7475 22.2051 27.8294 22.5109 27.6913 22.75Z" fill="#215F88"/>
<path d="M22.0678 27.5083C22.2058 27.7475 22.5116 27.8294 22.7508 27.6914C22.9899 27.5533 23.0719 27.2475 22.9338 27.0083L20.9338 23.5442C20.7957 23.3051 20.4899 23.2232 20.2508 23.3612C20.0116 23.4993 19.9297 23.8051 20.0678 24.0442L22.0678 27.5083Z" fill="#215F88"/>
<path d="M16 24.5C16.2761 24.5 16.5 24.7239 16.5 25V29C16.5 29.2761 16.2761 29.5 16 29.5C15.7239 29.5 15.5 29.2761 15.5 29V25C15.5 24.7239 15.7239 24.5 16 24.5Z" fill="#215F88"/>
<path d="M11.933 24.0442C12.0711 23.8051 11.9891 23.4993 11.75 23.3612C11.5109 23.2231 11.2051 23.3051 11.067 23.5442L9.06699 27.0083C8.92892 27.2475 9.01085 27.5533 9.25 27.6913C9.48915 27.8294 9.79494 27.7475 9.93301 27.5083L11.933 24.0442Z" fill="#215F88"/>
<path d="M8.63882 20.2504C8.77689 20.4895 8.69496 20.7953 8.45581 20.9334L4.99171 22.9334C4.75256 23.0715 4.44677 22.9895 4.30869 22.7504C4.17062 22.5112 4.25256 22.2054 4.49171 22.0674L7.95581 20.0674C8.19496 19.9293 8.50075 20.0112 8.63882 20.2504Z" fill="#215F88"/>
<path d="M7 16.5C7.27614 16.5 7.5 16.2761 7.5 16C7.5 15.7239 7.27614 15.5 7 15.5H3C2.72386 15.5 2.5 15.7239 2.5 16C2.5 16.2761 2.72386 16.5 3 16.5H7Z" fill="#215F88"/>
<path d="M8.63878 11.75C8.50071 11.9891 8.19492 12.0711 7.95577 11.933L4.49167 9.93301C4.25252 9.79494 4.17059 9.48915 4.30866 9.25C4.44673 9.01085 4.75252 8.92892 4.99167 9.06699L8.45577 11.067C8.69492 11.2051 8.77686 11.5109 8.63878 11.75Z" fill="#215F88"/>
<path d="M11.0676 8.45569C11.2057 8.69484 11.5115 8.77678 11.7506 8.6387C11.9898 8.50063 12.0717 8.19484 11.9336 7.95569L9.93364 4.49159C9.79557 4.25244 9.48978 4.17051 9.25063 4.30858C9.01148 4.44665 8.92955 4.75244 9.06762 4.99159L11.0676 8.45569Z" fill="#215F88"/>
<path d="M16 22C19.312 22 22 19.312 22 16C22 12.688 19.312 10 16 10C12.688 10 10 12.688 10 16C10 19.312 12.688 22 16 22Z" fill="#215F88"/>
</svg>
