<svg width="32" height="32" viewBox="0 0 32 32" fill="none" xmlns="http://www.w3.org/2000/svg">
<path d="M15.4476 4.5C14.7132 4.5 14.0053 4.61932 13.3423 4.84021L13.3293 4.84453L13.3166 4.84956C12.7671 5.06668 11.9408 5.51749 11.1932 6.18169C10.5238 6.77648 9.88525 7.57176 9.59555 8.55568C8.79914 8.70535 7.78229 9.09202 6.95268 9.84148C5.97246 10.727 5.28542 12.0933 5.50341 14.0552C5.53391 14.3297 5.78112 14.5274 6.05557 14.4969C6.33002 14.4664 6.52779 14.2192 6.4973 13.9448C6.31529 12.3067 6.87825 11.2563 7.62303 10.5835C8.39112 9.88965 9.38509 9.57144 10.0556 9.49694L10.4189 9.45657L10.4906 9.09806C10.6617 8.24302 11.2037 7.5101 11.8575 6.92924C12.5039 6.35488 13.2202 5.96488 13.6715 5.78458C14.2302 5.59996 14.827 5.5 15.4476 5.5C17.6991 5.5 19.6465 6.82482 20.5828 8.74795L20.7755 9.14373L21.1926 9.00273C21.6609 8.84438 22.1623 8.75249 22.6785 8.75249C25.2332 8.75249 27.3139 10.8572 27.3139 13.4616C27.3139 13.4679 27.3136 13.4757 27.3122 13.4992L27.3121 13.5022C27.3109 13.5226 27.3089 13.5569 27.3089 13.5948V13.8771L27.5506 14.0229C28.7144 14.7248 29.5004 16.0101 29.5004 17.4824C29.5004 18.9595 28.7167 20.246 27.5523 20.942C27.3153 21.0837 27.238 21.3907 27.3797 21.6277C27.5214 21.8647 27.8284 21.942 28.0654 21.8003C29.5234 20.9288 30.5004 19.321 30.5004 17.4824C30.5004 15.7512 29.6284 14.2271 28.3123 13.3245C28.2404 10.2447 25.754 7.75249 22.6785 7.75249C22.1955 7.75249 21.7272 7.81787 21.2834 7.93278C20.1267 5.89072 17.9528 4.5 15.4476 4.5Z" fill="#215F88"/>
<path d="M23.9771 19.5836C25.1843 20.2796 26 21.5541 26 23.0139C26 25.1651 24.2428 26.9141 22.0474 26.991V26.9955H21.9355C21.9215 27 21.9029 27 21.8889 27C21.8819 27 21.8738 26.9989 21.8656 26.9977C21.8574 26.9966 21.8493 26.9955 21.8423 26.9955H6.34881C3.94834 26.9955 2 25.1064 2 22.7788C2 20.4513 3.94834 18.5622 6.35813 18.5622C6.54457 18.5622 6.73102 18.5758 6.9128 18.5984C6.84754 18.2685 6.81025 17.9295 6.81025 17.5815C6.81025 14.4992 9.38784 12 12.5667 12C14.832 12 16.785 13.2745 17.7219 15.1139C18.1973 14.9602 18.71 14.8698 19.2414 14.8698C21.8609 14.8698 23.9817 16.9307 23.9817 19.4661C23.9817 19.4864 23.9806 19.5057 23.9794 19.5249C23.9782 19.5441 23.9771 19.5633 23.9771 19.5836Z" fill="#215F88"/>
</svg>
