<svg width="32" height="32" viewBox="0 0 32 32" fill="none" xmlns="http://www.w3.org/2000/svg">
<path fill-rule="evenodd" clip-rule="evenodd" d="M15 3C15 2.44772 15.4477 2 16 2C16.5523 2 17 2.44772 17 3V4.41836L21.3628 9.65376C22.9269 10.074 24 10.6621 24 11.3129C24 11.4232 23.9766 11.5317 23.9315 11.6378L19 28.4285C17.5 30 14.5 30 13 28.4285L8.06854 11.6378C8.02338 11.5317 8 11.4232 8 11.3129C8 10.662 9.0735 10.0738 10.638 9.65354L15 4.41914V3ZM15 5.98119L12.2234 9.31313C13.0986 9.16561 14.046 9.06478 15 9.02245V5.98119ZM19.7774 9.31326L17 5.98041V9.02245C17.9543 9.06479 18.9019 9.16566 19.7774 9.31326ZM10.8163 10.6414C12.2344 10.2501 14.1435 10 16 10C17.8565 10 19.7656 10.2501 21.1837 10.6414C21.8995 10.8389 22.4349 11.0575 22.7681 11.2634C22.8577 11.3187 22.9188 11.3639 22.9597 11.398L22.9219 11.5264C21.2711 12.0776 18.783 12.4285 16 12.4285C13.217 12.4285 10.7289 12.0776 9.07806 11.5264L9.04034 11.398C9.08123 11.3639 9.14233 11.3187 9.23188 11.2634C9.56514 11.0575 10.1005 10.8389 10.8163 10.6414ZM10.2478 15.5092L11.0794 18.3407C12.3785 18.7075 13.7911 18.9285 16 18.9285C18.2089 18.9285 19.6215 18.7075 20.9206 18.3407L21.7522 15.5092C18.0099 16.6998 13.9901 16.6998 10.2478 15.5092ZM13.1499 25.3902L12.2383 22.2866C14.6737 23.136 17.3263 23.136 19.7617 22.2866L18.8501 25.3902C18.0176 25.6442 16.8874 25.9285 16 25.9285C15.1126 25.9285 13.9824 25.6442 13.1499 25.3902Z" fill="#215F88"/>
</svg>
