<svg width="32" height="32" viewBox="0 0 32 32" fill="none" xmlns="http://www.w3.org/2000/svg">
<path fill-rule="evenodd" clip-rule="evenodd" d="M3 2.99805C3 2.44576 3.44772 1.99805 4 1.99805C4.55228 1.99805 5 2.44576 5 2.99805V9.06889L10.7046 2.42473C10.8496 2.25589 11.0827 2.20751 11.2774 2.28925C11.3818 2.29156 11.4845 2.31479 11.5851 2.3576L28.3758 7.28906C29.9473 8.78906 29.9473 11.7891 28.3758 13.2891L11.5851 18.2205C11.4789 18.2657 11.3705 18.2891 11.2602 18.2891C10.9441 18.2891 10.6429 18.036 10.3684 17.5965L5 12.6115V28.998C5 29.5503 4.55228 29.998 4 29.998C3.44772 29.998 3 29.5503 3 28.998V2.99805ZM5 11.2469L9.55517 15.4767C9.17766 13.9958 8.94727 12.1126 8.94727 10.2891C8.94727 8.57688 9.15038 6.81211 9.48766 5.37719L5 10.604V11.2469ZM11.3426 3.33258C11.3088 3.37344 11.2646 3.43369 11.2107 3.52094C11.0048 3.8542 10.7862 4.38958 10.5887 5.10533C10.1973 6.52343 9.94727 8.43259 9.94727 10.2891C9.94727 12.1455 10.1973 14.0547 10.5887 15.4728C10.7862 16.1885 11.0048 16.7239 11.2107 17.0572C11.266 17.1467 11.3111 17.2078 11.3453 17.2487L11.3664 17.2425C11.9209 15.5907 12.3755 13.0718 12.3755 10.2886C12.3755 7.48547 11.9027 4.98316 11.3426 3.33258ZM15.4561 16.0414L18.288 15.2096C18.6547 13.9105 18.8758 12.4979 18.8758 10.2891C18.8758 8.08021 18.6547 6.66759 18.288 5.36848L15.4564 4.53684C16.6469 8.2792 16.6468 12.2991 15.4561 16.0414ZM25.3375 13.1392L22.2338 14.0507C23.0833 11.6153 23.0833 8.96278 22.2338 6.5274L25.3375 7.43893C25.5914 8.27144 25.8758 9.40164 25.8758 10.2891C25.8758 11.1765 25.5914 12.3067 25.3375 13.1392Z" fill="#215F88"/>
</svg>
