<svg width="32" height="32" viewBox="0 0 32 32" fill="none" xmlns="http://www.w3.org/2000/svg">
<path fill-rule="evenodd" clip-rule="evenodd" d="M6 3C6 2.44771 6.44772 2 7 2C7.55228 2 8 2.44772 8 3V5.08472L18.5434 6.00153C18.7393 6.01857 18.8989 6.14635 18.966 6.31784C19.0357 6.39213 19.0903 6.4794 19.1302 6.57848L27.516 21.9384C27.5665 24.1102 25.4452 26.2315 23.2733 26.181L8 17.8425V29C8 29.5523 7.55228 30 7 30C6.44772 30 6 29.5523 6 29V3ZM16.2456 6.8055L8 6.08849V15.1812C8.73713 13.7098 10.11 11.8682 11.6566 10.3216C13.1097 8.86849 14.8234 7.56868 16.2456 6.8055ZM18.269 7.09645C18.2162 7.10148 18.1424 7.11277 18.0428 7.13631C17.6616 7.2264 17.1285 7.45038 16.4827 7.81683C15.2032 8.54287 13.6764 9.71602 12.3637 11.0287C11.051 12.3415 9.87783 13.8683 9.15179 15.1477C8.78534 15.7935 8.56136 16.3267 8.47127 16.7079C8.44706 16.8103 8.4358 16.8855 8.431 16.9385L8.44986 16.9488C10.01 16.1729 12.1128 14.7132 14.081 12.745C16.0629 10.7631 17.4978 8.65958 18.269 7.09645ZM12.191 18.9913L14.7813 20.4055C15.9594 19.7462 17.1146 18.9036 18.6765 17.3417C20.2386 15.7796 21.0811 14.6244 21.7404 13.4464L20.3265 10.8565C18.522 14.3447 15.6793 17.1871 12.191 18.9913ZM21.2299 23.9261L18.391 22.3762C20.7139 21.2547 22.5896 19.3789 23.7111 17.056L25.2612 19.8952C24.8521 20.6635 24.254 21.6636 23.6266 22.291C22.9989 22.9187 21.9983 23.517 21.2299 23.9261ZM8.42992 17.04C8.43046 17.0438 8.43091 17.0455 8.431 17.0454L8.43068 17.0432L8.42992 17.04Z" fill="#215F88"/>
</svg>
